<?xml version="1.0" encoding="utf-8"?>
<!-- Generator: Adobe Illustrator 19.0.0, SVG Export Plug-In . SVG Version: 6.00 Build 0)  -->
<svg version="1.1" id="图层_1" xmlns="http://www.w3.org/2000/svg" xmlns:xlink="http://www.w3.org/1999/xlink" x="0px" y="0px"
	 viewBox="-339 199 281 163" style="enable-background:new -339 199 281 163;" xml:space="preserve">
<style type="text/css">
	.st0{fill:#FFF7CD;}
	.st1{fill:url(#SVGID_1_);}
	.st2{fill:#FFFFFF;}
	.st3{clip-path:url(#SVGID_3_);fill:#FFFFFF;}
	.st4{clip-path:url(#SVGID_5_);}
	.st5{fill:none;stroke:#B94468;stroke-width:2.1605;stroke-linejoin:round;}
	.st6{clip-path:url(#SVGID_7_);}
	.st7{clip-path:url(#SVGID_9_);fill:#B94462;}
	.st8{clip-path:url(#SVGID_11_);}
	.st9{fill:none;stroke:#B94468;stroke-width:2.0501;stroke-linejoin:round;}
	.st10{clip-path:url(#SVGID_13_);fill:#B7E1FF;}
</style>
<rect x="-339" y="199" class="st0" width="281" height="163"/>
<linearGradient id="SVGID_1_" gradientUnits="userSpaceOnUse" x1="-137.8235" y1="366.0764" x2="-131.5354" y2="276.1533">
	<stop  offset="0" style="stop-color:#FF7781"/>
	<stop  offset="1" style="stop-color:#FFB01B"/>
</linearGradient>
<path class="st1" d="M-196.1,362c-2.5-6.9-3.9-14.3-3.9-22c0-35.3,28.7-64,64-64s64,28.7,64,64c0,7.7-1.4,15.1-3.9,22H-196.1z"/>
<path class="st2" d="M-107,317h-2h-2c0,0-0.8-6.3-9-8c0,0,6-4,11,3c5-7,11-3,11-3C-106.2,310.7-107,317-107,317z"/>
<path class="st2" d="M-132.1,295.8h-1.4h-1.4c0,0-0.6-4.1-6.1-5.2c0,0,4.1-2.6,7.5,2c3.4-4.6,7.5-2,7.5-2
	C-131.6,291.7-132.1,295.8-132.1,295.8z"/>
<g>
	<defs>
		<rect id="SVGID_2_" x="-339" y="200" width="281" height="163"/>
	</defs>
	<clipPath id="SVGID_3_">
		<use xlink:href="#SVGID_2_"  style="overflow:visible;"/>
	</clipPath>
	<path class="st3" d="M-120.5,371c-3.7,0-7.1-1.4-9.7-3.8c-4.3,7.6-12.4,12.8-21.8,12.8c-5.6,0-10.8-1.8-15-5c-1.7,0.6-3.6,1-5.5,1
		c-9.1,0-16.5-7.4-16.5-16.5c0-8.6,6.6-15.7,15-16.4c4.2-7.8,12.5-13.1,22-13.1c10.2,0,19,6.1,22.9,14.9c2.4-1.8,5.4-2.9,8.6-2.9
		c8,0,14.5,6.5,14.5,14.5S-112.5,371-120.5,371z"/>
</g>
<g>
	<defs>
		<rect id="SVGID_4_" x="-339" y="199" width="281" height="163"/>
	</defs>
	<clipPath id="SVGID_5_">
		<use xlink:href="#SVGID_4_"  style="overflow:visible;"/>
	</clipPath>
	<g class="st4">
		<path class="st2" d="M-253.3,364c-2.8,0-4-2-2.6-4.4l39.9-69.1c1.4-2.4,3.7-2.4,5.1,0l39.9,69.1c1.4,2.4,0.3,4.4-2.6,4.4H-253.3z"
			/>
		<path class="st5" d="M-253.3,364c-2.8,0-4-2-2.6-4.4l39.9-69.1c1.4-2.4,3.7-2.4,5.1,0l39.9,69.1c1.4,2.4,0.3,4.4-2.6,4.4H-253.3z"
			/>
	</g>
</g>
<g>
	<defs>
		<rect id="SVGID_6_" x="-339" y="199" width="281" height="163"/>
	</defs>
	<clipPath id="SVGID_7_">
		<use xlink:href="#SVGID_6_"  style="overflow:visible;"/>
	</clipPath>
	<g class="st6">
		<path class="st2" d="M-347.6,368c-5.1,0-7.2-3.6-4.7-8.1l73.2-126.7c2.6-4.4,6.8-4.4,9.3,0l73.2,126.8c2.6,4.4,0.5,8.1-4.7,8.1
			L-347.6,368z"/>
	</g>
</g>
<g>
	<defs>
		<rect id="SVGID_8_" x="-339" y="199" width="281" height="163"/>
	</defs>
	<clipPath id="SVGID_9_">
		<use xlink:href="#SVGID_8_"  style="overflow:visible;"/>
	</clipPath>
	<path class="st7" d="M-242.1,336l-14.9,26h88l-9.4-16.7c0,0-7.2,3.9-14.4-5.9c0,0-6.5-8.3-13.4,2.9c0,0-8.5,10.3-19.4,7.8
		C-225.7,350.2-235.1,348.8-242.1,336z"/>
</g>
<g>
	<defs>
		<rect id="SVGID_10_" x="-339" y="199" width="281" height="163"/>
	</defs>
	<clipPath id="SVGID_11_">
		<use xlink:href="#SVGID_10_"  style="overflow:visible;"/>
	</clipPath>
	<g class="st8">
		<path class="st2" d="M-343.9,365.5c-4.9,0-6.9-3.5-4.5-7.7l69.5-120.3c2.5-4.2,6.5-4.2,8.9,0l69.5,120.3c2.5,4.2,0.4,7.7-4.5,7.7
			H-343.9z"/>
		<path class="st9" d="M-343.9,365.5c-4.9,0-6.9-3.5-4.5-7.7l69.5-120.3c2.5-4.2,6.5-4.2,8.9,0l69.5,120.3c2.5,4.2,0.4,7.7-4.5,7.7
			H-343.9z"/>
	</g>
</g>
<g>
	<defs>
		<rect id="SVGID_12_" x="-339" y="199" width="281" height="163"/>
	</defs>
	<clipPath id="SVGID_13_">
		<use xlink:href="#SVGID_12_"  style="overflow:visible;"/>
	</clipPath>
	<path class="st10" d="M-322.8,316.5l-26.1,45.5H-199l-17.5-29.2c0,0-12.6,6.9-25.2-10.3c0,0-11.3-14.6-23.5,5.1
		c0,0-14.8,18-33.9,13.7C-299.1,341.4-310.6,338.8-322.8,316.5z"/>
</g>
</svg>
